<svg xmlns="http://www.w3.org/2000/svg">
  <symbol id="like-icon" width="23" height="21" viewBox="0 0 23 21" fill="none">
      <path opacity="0.3"
        d="M12.9636 3.78L12.3364 6.825L11.7091 9.45H14.3227H20.8045V11.55C20.8045 11.55 20.8045 11.55 20.8045 11.655L17.7727 18.9H8.36364V8.4L12.9636 3.78ZM2.09091 10.5V18.9V10.5ZM13.8 0L6.9 6.93C6.48182 7.245 6.27273 7.77 6.27273 8.4V18.9C6.27273 20.055 7.21364 21 8.36364 21H17.7727C18.6091 21 19.3409 20.475 19.6545 19.74L22.7909 12.285C22.8955 12.075 22.8955 11.76 22.8955 11.55V9.45H23C23 8.295 22.0591 7.35 20.9091 7.35H14.3227L15.3682 2.52V2.205C15.3682 1.785 15.1591 1.365 14.95 1.05L13.8 0ZM4.18182 8.4H0V21H4.18182V8.4Z"
        fill="black" />
  </symbol>
  <symbol id="html-icon"  width="28" height="33" viewBox="0 0 28 33" fill="none">
<path d="M14.1506 0.25H14.0502L0.5 1.58944V25.221L14.0502 32.875L27.5 25.221V1.58944L14.1506 0.25ZM25.5929 11.8266L14.0502 5.32075V5.22507H13.9498L13.8494 5.1294V5.22507L2.40706 11.8266V3.21591L13.9498 2.06782L25.5929 3.21591V11.8266ZM13.9498 6.75587L25.4926 13.1661L20.9758 15.6536L13.8494 11.6353V12.9747L19.7714 16.3233L18.868 16.8017L13.8494 13.9315V15.2709L17.6636 17.4714L16.8606 17.9498L13.8494 16.2276V17.5671L15.7565 18.6195L13.9498 19.6719L2.50743 13.2617L13.9498 6.75587ZM2.40706 14.6968L13.8494 21.2027V22.1595L5.92007 17.6628V19.0022L13.9498 23.5946V24.647L5.92007 20.1503V21.4897L13.9498 26.0821L22.0799 21.3941V16.419L25.4926 14.5055V24.0729L13.9498 30.6745L2.40706 24.1686V14.6968Z" fill="black"/>
  </symbol>
</svg>
